<svg xmlns="http://www.w3.org/2000/svg" viewBox="0 0 868.64 583.44"><defs><style>.cls-1{fill:#511a12;stroke:#1d1d1b;}.cls-1,.cls-2,.cls-3{stroke-miterlimit:22.93;stroke-width:0.57px;}.cls-1,.cls-2{fill-rule:evenodd;}.cls-2{fill:#fff;}.cls-2,.cls-3{stroke:#fff;}.cls-3{fill:#e30613;}</style></defs><g id="Camada_2" data-name="Camada 2"><g id="Camada_1-2" data-name="Camada 1"><path class="cls-1" d="M237.4,190.8c1.86-24.06,8.91-47.05,22.28-67.58a141.23,141.23,0,0,1,47.83-44.94,164.1,164.1,0,0,1,56.61-19.93c17.26-2.72,35.38-2.81,52.53.75l1.31.27c16.48-21.79,38.94-37.73,64.58-47.51,30-11.45,63.33-14.11,95-9.29,32.37,4.92,63.77,17.73,89.55,38.05,26.57,20.94,45.56,48.59,55,80.83,66.58,11.75,115.42,57.3,136,122.08a229.15,229.15,0,0,1,7.37,104.83c-5.57,34.56-19.13,68.28-41.35,95.53-19.95,24.46-45.82,42.4-76.17,51.34a165.29,165.29,0,0,1-25.18,5.31,175.91,175.91,0,0,1-37.9.71l-.37,0h-.16l-.16,0-.38-.05a137.3,137.3,0,0,1-14.69-2.48,126.48,126.48,0,0,1-37.41,49c-21.59,17.49-48.21,28.56-75.53,33.12-28,4.68-57.22,2.64-84-6.84A143.27,143.27,0,0,1,414,535.79c-21.08,14.69-46.43,23.86-71.67,27.35a168.79,168.79,0,0,1-55.65-1.45,144.53,144.53,0,0,1-53.51-22.1,127.44,127.44,0,0,1-51.85-72.38c-49.25,3.27-91.71-15.73-123.51-53.77-14.62-17.5-26-37.7-34.83-58.68-2.95-7-5.41-14.6-7.68-21.84C12,322.35,9,311.62,6.48,300.83c-3.93-16.79-12.24-53.71,1-67.77a18.59,18.59,0,0,1,2.62-2.31c8.38-6.09,19.47-3.72,28.62-1,13,3.89,26.25,9.52,39,14.4,14.06,5.4,34.74,9.45,49.17,3.59,6.34-4.3,12.11-10.09,17.58-15.39,15.23-14.73,29.23-27,49.39-34.64a112.28,112.28,0,0,1,43.53-6.93Z"/><path class="cls-2" d="M713.77,130.68c65.23,9.08,114,51.94,134.35,116a218.59,218.59,0,0,1,7,100c-5.27,32.73-18.09,64.78-39.14,90.6-18.6,22.82-42.68,39.57-71,47.94a155.54,155.54,0,0,1-23.59,5,166.08,166.08,0,0,1-35.66.66l-.38,0-.39-.05a124.12,124.12,0,0,1-22.31-4.62l-.11.32c-7,21.12-20.19,39.09-37.41,53-20.19,16.35-45.16,26.68-70.7,31-26.22,4.38-53.69,2.5-78.81-6.4a132.17,132.17,0,0,1-60-42.48c-21.12,17.16-48.15,27.57-74.65,31.23a158.54,158.54,0,0,1-52.2-1.35A134.26,134.26,0,0,1,239,531c-26.29-17.93-43.88-44.59-49.63-75.15l-.29.05-2.2.32-1.94.25-.5.07-.5,0C136.4,460.73,96.05,443,65.79,406.76,52,390.28,41.1,371,32.57,350.72,25.15,333.1.87,255.26,15.08,240.2c7-7.44,24.5.49,58.92,13.69,19.25,7.39,41.92,10.06,57.85,3.07,7.22-4.71,13.72-11.15,19.87-17.11,14.13-13.67,27.06-25.25,45.85-32.39,16.21-6.15,33-7.35,49.75-5.54.33-25.69,6.59-50.75,21.08-73a130.75,130.75,0,0,1,44.34-41.61,153.7,153.7,0,0,1,53-18.65c16-2.52,32.9-2.65,48.79.65l7.94,1.65C437.83,48.26,460,31.58,486.25,21.59,514.6,10.78,546.1,8.32,576,12.86c30.58,4.65,60.3,16.73,84.66,35.93,26.89,21.2,45.12,49.36,53.11,81.89Z"/><path class="cls-3" d="M823.06,254.63c-16.86-53.17-58.94-96.31-128.3-99.3l-3.36-.14-.42-3.36c-4.45-35.56-22.22-63.18-46.59-82.39-20.71-16.32-46.18-26.61-72.34-30.59s-53-1.63-76.44,7.3c-26.18,10-48.1,28.23-60,55.13a99,99,0,0,0-5.75,43.07,86.81,86.81,0,0,0,15.4,42.07,78.32,78.32,0,0,0,15.57,14.91A83.39,83.39,0,0,0,494.77,216c10.53,1.88,21.87,1.48,31.75-2.94a58.47,58.47,0,0,0,9.46-5.37c19.73-13.72,33.95-41.84,17.74-63.59A13.51,13.51,0,1,1,575.39,128a61.59,61.59,0,0,1,12.4,36.67c.23,31.38-22.25,60.57-50.22,73.1-14.91,6.67-31.61,7.73-47.56,4.88a110.4,110.4,0,0,1-45.08-19.47,105.3,105.3,0,0,1-21.18-20.4c-.13-.16-.25-.32-.37-.49a114,114,0,0,1-20.48-56.13A126,126,0,0,1,409.18,95c-11.64-2.42-25.27-2.64-39.36-.43A127.58,127.58,0,0,0,325.93,110a104.39,104.39,0,0,0-35.5,33.22c-13.7,21.05-20.55,49.31-14.81,85.77l1,6.19-6-1.76c-57.18-16.7-79.1,4.51-100.56,25.29C162.1,266.39,154.25,274,144.7,280l-.22.13-.16.08c-35.93,17.23-85.53-2.83-107.84-12.23,1.22,7.59,2.85,16.09,5,25.08,7.43,31.17,21,68.79,44.48,96.89,22,26.29,52.8,44.23,95.71,40.48l1.63-.21,1.87-.28a117,117,0,0,1,3-20.21c7.06-29.7,26.39-55.06,55.07-66.6A86,86,0,0,1,279.77,337c.35,0,.71.05,1.06.09a126.93,126.93,0,0,1,18.91,3.83c18.78,5,35.41,14.54,45.36,29,9,12.18,13.56,27.71,11.18,46.65a14.52,14.52,0,1,1-28.82-3.61c3.86-30.85-23.65-43.57-49.69-47A57,57,0,0,0,254,370c-19.88,8-32.78,25.89-37.65,46.37a96.52,96.52,0,0,0-2.65,21.8c1.34,28.26,15.32,54.17,40.1,71.07a107.84,107.84,0,0,0,40,16.42,132.08,132.08,0,0,0,43.5,1.09c32.52-4.48,62.61-20.36,78.57-43.76l3.94-5.78,3,6.33c13.36,28.56,35.91,46.64,61.58,55.73,20.91,7.41,43.89,8.89,65.7,5.25s42.37-12.4,58.49-25.45c13.34-10.8,23.62-24.57,29-40.84a109.05,109.05,0,0,1-19.78-14.72c-13.16-12.47-23.34-28.31-28.3-45.8a84.5,84.5,0,0,1-2.27-36.64,115.12,115.12,0,0,1,5.13-20c7.92-22.32,23.26-43.46,45.19-53.62,19.37-9,40-7.59,59.16,1.14a14.5,14.5,0,0,1-12,26.38c-11.38-5.19-23.35-6.58-34.94-1.21-19,8.8-30.69,32.09-33.89,51.93C611.62,411.64,627.29,437,648.31,451h0a93.09,93.09,0,0,0,39.6,13.7,141.8,141.8,0,0,0,30-.52A148.61,148.61,0,0,0,737.51,460c23.81-7.11,43.24-21.1,58.11-39.33,17.58-21.57,28.87-49.07,33.56-78.17s2.76-59.92-6.12-87.9Z"/></g></g></svg>